{"title":"Barbie &amp; Her Sisters in A Pony Tale(2013)DVDRip DD5.1-DGrea8","uid":9114584,"size":1488897978,"categoryP":"video","categoryS":"movies_dvdr","magnet":"?xt=urn:btih:0464e95d598f09bc2f0b6668c6967bac4339fb32&amp;dn=Barbie+%26amp%3B+Her+Sisters+in+A+Pony+Tale%282013%29DVDRip+DD5.1-DGrea8&amp;tr=udp%3A%2F%2Ftracker.openbittorrent.com%3A80&amp;tr=udp%3A%2F%2Fopen.demonii.com%3A1337&amp;tr=udp%3A%2F%2Ftracker.coppersurfer.tk%3A6969&amp;tr=udp%3A%2F%2Fexodus.desync.com%3A6969","seeders":2,"leechers":0,"uploader":"DGrea8","files":-1,"time":1383002782,"description":"      Barbie &amp; Her Sisters in A Pony Tale(2013)DvDRip Eng DD5.1\n\n\nPlot:-\n\n    &quot;Barbie and her sisters set off on a Swiss adventure to the majestic Alps, where they are excited to spend the summer at a fun-filled riding academy! Barbie can't wait to find a new horse to bring back to Malibu. Stacie is super excited to prove she's an amazing equestrian. All Chelsea wants to do is ride the big horses, and Skipper... well let's just say she's more interested in writing about the great outdoors than experiencing it. The sisters' vacation gets off to a rocky start, but when Barbie discovers a mysterious wild horse in the woods, their visit becomes truly magical.&quot; \n\nBarbie &amp; Her Sisters in A Pony Tale is the 26th computer-animated Barbie film. It follows Barbie and her younger sisters, Skipper, Stacie and Chelsea, at a horse academy,and is released on Blu-ray Combo Pack, DVD and digital formats on October 22nd, 2013 in the US. The theme song of the movie, &quot;You're The One&quot;, is sung by Heavynn Gates.\n\n\n\nVideo Info:. \n\n\nVideo\nID : 1\nFormat : AVC\nFormat/Info : Advanced Video Codec\nFormat profile : &lt;a class=&quot;__cf_email__&quot; href=&quot;/cdn-cgi/l/email-protection&quot; data-cfemail=&quot;d79ab6beb9979be4f9e7&quot;&gt;[email&amp;#160;protected]&lt;/a&gt;&lt;script cf-hash='f9e31' type=&quot;text/javascript&quot;&gt;\n/* &lt;![CDATA[ */!function(){try{var t=&quot;currentScript&quot;in document?document.currentScript:function(){for(var t=document.getElementsByTagName(&quot;script&quot;),e=t.length;e--;)if(t[e].getAttribute(&quot;cf-hash&quot;))return t[e]}();if(t&amp;&amp;t.previousSibling){var e,r,n,i,c=t.previousSibling,a=c.getAttribute(&quot;data-cfemail&quot;);if(a){for(e=&quot;&quot;,r=parseInt(a.substr(0,2),16),n=2;a.length-n;n+=2)i=parseInt(a.substr(n,2),16)^r,e+=String.fromCharCode(i);e=document.createTextNode(e),c.parentNode.replaceChild(e,c)}}}catch(u){}}();/* ]]&gt; */&lt;/script&gt;\nFormat settings, CABAC : Yes\nFormat settings, ReFrames : 4 frames\nMuxing mode : Header stripping\nCodec ID : V_MPEG4/ISO/AVC\nDuration : 1h 22mn\nBit rate : 931 Kbps\nWidth : 704 pixels\nHeight : 384 pixels\nDisplay aspect ratio : 16:9\nFrame rate mode : Variable\nFrame rate : 25.000 fps\nColor space : YUV\nChroma subsampling : 4:2:0\nBit depth : 8 bits\nScan type : Progressive\n\n\nAudio Info:. \n\nAudio #1\nID : 2\nFormat : AC-3\nFormat/Info : Audio Coding 3\nFormat profile : Dolby Digital\nMode extension : CM (complete main)\nMuxing mode : Header stripping\nCodec ID : A_AC3\nDuration : 1h 22mn\nBit rate mode : Constant\nBit rate : 224 Kbps\nChannel(s) : 2 channels\nChannel positions : Front: L R\nSampling rate : 48.0 KHz\nBit depth : 16 bits\nCompression mode : Lossy\nStream size : 132 MiB (16%)\nLanguage : Hindi\n\nAudio #2\nID : 3\nFormat : AC-3\nFormat/Info : Audio Coding 3\nFormat profile : Dolby Digital\nMode extension : CM (complete main)\nMuxing mode : Header stripping\nCodec ID : A_AC3\nDuration : 1h 22mn\nBit rate mode : Constant\nBit rate : 224 Kbps\nChannel(s) : 2 channels\nChannel positions : Front: L R\nSampling rate : 48.0 KHz\nBit depth : 16 bits\nCompression mode : Lossy\nStream size : 132 MiB (16%)\nLanguage : English\n\nSubtitle : English\n\n\nScreen Shoots:-\n  &lt;a href=&quot;\nhttp://img32.imageshack.us/img32/6300/g0mh.jpg&quot; rel=&quot;nofollow&quot; target=&quot;_NEW&quot;&gt;\nhttp://img32.imageshack.us/img32/6300/g0mh.jpg&lt;/a&gt;\n &lt;a href=&quot;\nhttp://img819.imageshack.us/img819/5546/yl7n.jpg&quot; rel=&quot;nofollow&quot; target=&quot;_NEW&quot;&gt;\nhttp://img819.imageshack.us/img819/5546/yl7n.jpg&lt;/a&gt;\n &lt;a href=&quot;\nhttp://img703.imageshack.us/img703/1139/eens.jpg&quot; rel=&quot;nofollow&quot; target=&quot;_NEW&quot;&gt;\nhttp://img703.imageshack.us/img703/1139/eens.jpg&lt;/a&gt;\n &lt;a href=&quot;\nhttp://img824.imageshack.us/img824/406/nm0f.jpg&quot; rel=&quot;nofollow&quot; target=&quot;_NEW&quot;&gt;\nhttp://img824.imageshack.us/img824/406/nm0f.jpg&lt;/a&gt;\n &lt;a href=&quot;\nhttp://img585.imageshack.us/img585/3746/xmxp.jpg&quot; rel=&quot;nofollow&quot; target=&quot;_NEW&quot;&gt;\nhttp://img585.imageshack.us/img585/3746/xmxp.jpg&lt;/a&gt;\n\n\nNote:-- Check The Torrent\n\n\n        Sample Video Available In This Torrent\t\n\n","torrent":{"xt":"urn:btih:0464e95d598f09bc2f0b6668c6967bac4339fb32","amp;dn":"Barbie+%26amp%3B+Her+Sisters+in+A+Pony+Tale%282013%29DVDRip+DD5.1-DGrea8","amp;tr":["udp%3A%2F%2Ftracker.openbittorrent.com%3A80","udp%3A%2F%2Fopen.demonii.com%3A1337","udp%3A%2F%2Ftracker.coppersurfer.tk%3A6969","udp%3A%2F%2Fexodus.desync.com%3A6969"],"infoHash":"0464e95d598f09bc2f0b6668c6967bac4339fb32","infoHashBuffer":{"type":"Buffer","data":[4,100,233,93,89,143,9,188,47,11,102,104,198,150,123,172,67,57,251,50]},"announce":[],"urlList":[]}}